<mxfile host="app.diagrams.net" agent="Mozilla/5.0 (Windows NT 10.0; Win64; x64) AppleWebKit/537.36 (KHTML, like Gecko) Chrome/137.0.0.0 Safari/537.36" version="27.2.0">
  <diagram name="Page-1" id="emb8XFiPSUbFhORSSpVD">
    <mxGraphModel dx="1042" dy="562" grid="1" gridSize="10" guides="1" tooltips="1" connect="1" arrows="1" fold="1" page="1" pageScale="1" pageWidth="827" pageHeight="1169" math="0" shadow="0">
      <root>
        <mxCell id="0" />
        <mxCell id="1" parent="0" />
        <mxCell id="skhUuAagwDrqgDl9gUNp-7" value="" style="group" vertex="1" connectable="0" parent="1">
          <mxGeometry x="70" y="40" width="80" height="500" as="geometry" />
        </mxCell>
        <mxCell id="skhUuAagwDrqgDl9gUNp-1" value="" style="ellipse;whiteSpace=wrap;html=1;aspect=fixed;" vertex="1" parent="skhUuAagwDrqgDl9gUNp-7">
          <mxGeometry y="190" width="80" height="80" as="geometry" />
        </mxCell>
        <mxCell id="skhUuAagwDrqgDl9gUNp-2" value="" style="ellipse;whiteSpace=wrap;html=1;aspect=fixed;" vertex="1" parent="skhUuAagwDrqgDl9gUNp-7">
          <mxGeometry y="360" width="80" height="80" as="geometry" />
        </mxCell>
        <mxCell id="skhUuAagwDrqgDl9gUNp-3" value="" style="ellipse;whiteSpace=wrap;html=1;aspect=fixed;" vertex="1" parent="skhUuAagwDrqgDl9gUNp-7">
          <mxGeometry width="80" height="80" as="geometry" />
        </mxCell>
        <mxCell id="skhUuAagwDrqgDl9gUNp-4" value="" style="endArrow=none;html=1;rounded=0;exitX=0.5;exitY=0;exitDx=0;exitDy=0;entryX=0.5;entryY=1;entryDx=0;entryDy=0;" edge="1" parent="skhUuAagwDrqgDl9gUNp-7" source="skhUuAagwDrqgDl9gUNp-2" target="skhUuAagwDrqgDl9gUNp-1">
          <mxGeometry width="50" height="50" relative="1" as="geometry">
            <mxPoint x="200" y="270" as="sourcePoint" />
            <mxPoint x="250" y="220" as="targetPoint" />
          </mxGeometry>
        </mxCell>
        <mxCell id="skhUuAagwDrqgDl9gUNp-5" value="" style="endArrow=none;html=1;rounded=0;exitX=0.5;exitY=0;exitDx=0;exitDy=0;entryX=0.5;entryY=1;entryDx=0;entryDy=0;" edge="1" parent="skhUuAagwDrqgDl9gUNp-7" source="skhUuAagwDrqgDl9gUNp-1" target="skhUuAagwDrqgDl9gUNp-3">
          <mxGeometry width="50" height="50" relative="1" as="geometry">
            <mxPoint x="200" y="270" as="sourcePoint" />
            <mxPoint x="250" y="220" as="targetPoint" />
          </mxGeometry>
        </mxCell>
        <mxCell id="skhUuAagwDrqgDl9gUNp-6" value="Master" style="text;html=1;align=center;verticalAlign=middle;whiteSpace=wrap;rounded=0;" vertex="1" parent="skhUuAagwDrqgDl9gUNp-7">
          <mxGeometry x="10" y="470" width="60" height="30" as="geometry" />
        </mxCell>
        <mxCell id="skhUuAagwDrqgDl9gUNp-21" value="" style="group" vertex="1" connectable="0" parent="1">
          <mxGeometry x="290" y="40" width="260" height="500" as="geometry" />
        </mxCell>
        <mxCell id="skhUuAagwDrqgDl9gUNp-8" value="" style="group" vertex="1" connectable="0" parent="skhUuAagwDrqgDl9gUNp-21">
          <mxGeometry width="80" height="500" as="geometry" />
        </mxCell>
        <mxCell id="skhUuAagwDrqgDl9gUNp-9" value="" style="ellipse;whiteSpace=wrap;html=1;aspect=fixed;" vertex="1" parent="skhUuAagwDrqgDl9gUNp-8">
          <mxGeometry y="190" width="80" height="80" as="geometry" />
        </mxCell>
        <mxCell id="skhUuAagwDrqgDl9gUNp-10" value="" style="ellipse;whiteSpace=wrap;html=1;aspect=fixed;" vertex="1" parent="skhUuAagwDrqgDl9gUNp-8">
          <mxGeometry y="360" width="80" height="80" as="geometry" />
        </mxCell>
        <mxCell id="skhUuAagwDrqgDl9gUNp-11" value="" style="ellipse;whiteSpace=wrap;html=1;aspect=fixed;" vertex="1" parent="skhUuAagwDrqgDl9gUNp-8">
          <mxGeometry width="80" height="80" as="geometry" />
        </mxCell>
        <mxCell id="skhUuAagwDrqgDl9gUNp-12" value="" style="endArrow=none;html=1;rounded=0;exitX=0.5;exitY=0;exitDx=0;exitDy=0;entryX=0.5;entryY=1;entryDx=0;entryDy=0;" edge="1" parent="skhUuAagwDrqgDl9gUNp-8" source="skhUuAagwDrqgDl9gUNp-10" target="skhUuAagwDrqgDl9gUNp-9">
          <mxGeometry width="50" height="50" relative="1" as="geometry">
            <mxPoint x="200" y="270" as="sourcePoint" />
            <mxPoint x="250" y="220" as="targetPoint" />
          </mxGeometry>
        </mxCell>
        <mxCell id="skhUuAagwDrqgDl9gUNp-13" value="" style="endArrow=none;html=1;rounded=0;exitX=0.5;exitY=0;exitDx=0;exitDy=0;entryX=0.5;entryY=1;entryDx=0;entryDy=0;" edge="1" parent="skhUuAagwDrqgDl9gUNp-8" source="skhUuAagwDrqgDl9gUNp-9" target="skhUuAagwDrqgDl9gUNp-11">
          <mxGeometry width="50" height="50" relative="1" as="geometry">
            <mxPoint x="200" y="270" as="sourcePoint" />
            <mxPoint x="250" y="220" as="targetPoint" />
          </mxGeometry>
        </mxCell>
        <mxCell id="skhUuAagwDrqgDl9gUNp-14" value="Master" style="text;html=1;align=center;verticalAlign=middle;whiteSpace=wrap;rounded=0;" vertex="1" parent="skhUuAagwDrqgDl9gUNp-8">
          <mxGeometry x="10" y="470" width="60" height="30" as="geometry" />
        </mxCell>
        <mxCell id="skhUuAagwDrqgDl9gUNp-15" style="edgeStyle=orthogonalEdgeStyle;rounded=0;orthogonalLoop=1;jettySize=auto;html=1;exitX=0.5;exitY=1;exitDx=0;exitDy=0;" edge="1" parent="skhUuAagwDrqgDl9gUNp-8" source="skhUuAagwDrqgDl9gUNp-11" target="skhUuAagwDrqgDl9gUNp-11">
          <mxGeometry relative="1" as="geometry" />
        </mxCell>
        <mxCell id="skhUuAagwDrqgDl9gUNp-16" value="" style="endArrow=none;html=1;rounded=0;" edge="1" parent="skhUuAagwDrqgDl9gUNp-21" target="skhUuAagwDrqgDl9gUNp-17">
          <mxGeometry width="50" height="50" relative="1" as="geometry">
            <mxPoint x="80" y="230" as="sourcePoint" />
            <mxPoint x="170" y="180" as="targetPoint" />
          </mxGeometry>
        </mxCell>
        <mxCell id="skhUuAagwDrqgDl9gUNp-17" value="" style="ellipse;whiteSpace=wrap;html=1;aspect=fixed;" vertex="1" parent="skhUuAagwDrqgDl9gUNp-21">
          <mxGeometry x="180" y="160" width="80" height="80" as="geometry" />
        </mxCell>
        <mxCell id="skhUuAagwDrqgDl9gUNp-18" value="" style="endArrow=none;html=1;rounded=0;exitX=0.5;exitY=0;exitDx=0;exitDy=0;" edge="1" parent="skhUuAagwDrqgDl9gUNp-21" source="skhUuAagwDrqgDl9gUNp-17" target="skhUuAagwDrqgDl9gUNp-19">
          <mxGeometry width="50" height="50" relative="1" as="geometry">
            <mxPoint x="100" y="280" as="sourcePoint" />
            <mxPoint x="220" y="80" as="targetPoint" />
          </mxGeometry>
        </mxCell>
        <mxCell id="skhUuAagwDrqgDl9gUNp-19" value="" style="ellipse;whiteSpace=wrap;html=1;aspect=fixed;" vertex="1" parent="skhUuAagwDrqgDl9gUNp-21">
          <mxGeometry x="180" width="80" height="80" as="geometry" />
        </mxCell>
        <mxCell id="skhUuAagwDrqgDl9gUNp-20" value="feature-branch" style="text;html=1;align=center;verticalAlign=middle;whiteSpace=wrap;rounded=0;" vertex="1" parent="skhUuAagwDrqgDl9gUNp-21">
          <mxGeometry x="190" y="270" width="60" height="30" as="geometry" />
        </mxCell>
      </root>
    </mxGraphModel>
  </diagram>
</mxfile>
